<mxfile host="app.diagrams.net" agent="Mozilla/5.0 (Windows NT 10.0; Win64; x64; rv:132.0) Gecko/20100101 Firefox/132.0" version="24.9.1">
  <diagram name="Page-1" id="0783ab3e-0a74-02c8-0abd-f7b4e66b4bec">
    <mxGraphModel dx="6456" dy="1191" grid="1" gridSize="10" guides="1" tooltips="1" connect="1" arrows="1" fold="1" page="1" pageScale="1" pageWidth="850" pageHeight="1100" background="none" math="0" shadow="0">
      <root>
        <mxCell id="0" />
        <mxCell id="1" parent="0" />
        <mxCell id="uUPJHFzAYMxNlcOr0IJL-1" value="Usuario" style="swimlane;whiteSpace=wrap;html=1;" vertex="1" collapsed="1" parent="1">
          <mxGeometry x="-1220" y="120" width="80" height="30" as="geometry">
            <mxRectangle x="-1220" y="120" width="380" height="910" as="alternateBounds" />
          </mxGeometry>
        </mxCell>
        <mxCell id="uUPJHFzAYMxNlcOr0IJL-6" value="" style="ellipse;html=1;shape=startState;fillColor=#000000;strokeColor=#ff0000;" vertex="1" parent="uUPJHFzAYMxNlcOr0IJL-1">
          <mxGeometry x="145" y="38" width="30" height="30" as="geometry" />
        </mxCell>
        <mxCell id="uUPJHFzAYMxNlcOr0IJL-7" value="" style="edgeStyle=orthogonalEdgeStyle;html=1;verticalAlign=bottom;endArrow=open;endSize=8;strokeColor=#ff0000;rounded=0;" edge="1" source="uUPJHFzAYMxNlcOr0IJL-6" parent="uUPJHFzAYMxNlcOr0IJL-1">
          <mxGeometry relative="1" as="geometry">
            <mxPoint x="160" y="128" as="targetPoint" />
          </mxGeometry>
        </mxCell>
        <mxCell id="uUPJHFzAYMxNlcOr0IJL-20" style="edgeStyle=orthogonalEdgeStyle;rounded=0;orthogonalLoop=1;jettySize=auto;html=1;" edge="1" parent="uUPJHFzAYMxNlcOr0IJL-1" source="uUPJHFzAYMxNlcOr0IJL-8" target="uUPJHFzAYMxNlcOr0IJL-9">
          <mxGeometry relative="1" as="geometry" />
        </mxCell>
        <mxCell id="uUPJHFzAYMxNlcOr0IJL-8" value="Inicia sesión en el sistema" style="rounded=1;whiteSpace=wrap;html=1;" vertex="1" parent="uUPJHFzAYMxNlcOr0IJL-1">
          <mxGeometry x="110" y="130" width="120" height="60" as="geometry" />
        </mxCell>
        <mxCell id="uUPJHFzAYMxNlcOr0IJL-9" value="Selecciona dependencia de interés" style="rounded=1;whiteSpace=wrap;html=1;" vertex="1" parent="uUPJHFzAYMxNlcOr0IJL-1">
          <mxGeometry x="110" y="230" width="120" height="60" as="geometry" />
        </mxCell>
        <mxCell id="uUPJHFzAYMxNlcOr0IJL-12" value="Selecciona fecha y hora disponible" style="rounded=1;whiteSpace=wrap;html=1;" vertex="1" parent="uUPJHFzAYMxNlcOr0IJL-1">
          <mxGeometry x="110" y="470" width="120" height="60" as="geometry" />
        </mxCell>
        <mxCell id="uUPJHFzAYMxNlcOr0IJL-16" value="Recibe confirmación de cita" style="rounded=1;whiteSpace=wrap;html=1;" vertex="1" parent="uUPJHFzAYMxNlcOr0IJL-1">
          <mxGeometry x="110" y="740" width="120" height="60" as="geometry" />
        </mxCell>
        <mxCell id="uUPJHFzAYMxNlcOr0IJL-22" value="" style="shape=line;html=1;strokeWidth=6;strokeColor=#ff0000;" vertex="1" parent="uUPJHFzAYMxNlcOr0IJL-1">
          <mxGeometry x="270" y="350" width="200" height="10" as="geometry" />
        </mxCell>
        <mxCell id="uUPJHFzAYMxNlcOr0IJL-23" value="" style="edgeStyle=orthogonalEdgeStyle;html=1;verticalAlign=bottom;endArrow=open;endSize=8;strokeColor=#ff0000;rounded=0;" edge="1" source="uUPJHFzAYMxNlcOr0IJL-22" parent="uUPJHFzAYMxNlcOr0IJL-1">
          <mxGeometry relative="1" as="geometry">
            <mxPoint x="170" y="470" as="targetPoint" />
            <Array as="points">
              <mxPoint x="360" y="410" />
              <mxPoint x="170" y="410" />
            </Array>
          </mxGeometry>
        </mxCell>
        <mxCell id="uUPJHFzAYMxNlcOr0IJL-21" style="edgeStyle=orthogonalEdgeStyle;rounded=0;orthogonalLoop=1;jettySize=auto;html=1;entryX=0.196;entryY=0.167;entryDx=0;entryDy=0;entryPerimeter=0;" edge="1" parent="uUPJHFzAYMxNlcOr0IJL-1" source="uUPJHFzAYMxNlcOr0IJL-9" target="uUPJHFzAYMxNlcOr0IJL-22">
          <mxGeometry relative="1" as="geometry" />
        </mxCell>
        <mxCell id="uUPJHFzAYMxNlcOr0IJL-4" value="Sistema" style="swimlane;whiteSpace=wrap;html=1;startSize=23;" vertex="1" collapsed="1" parent="1">
          <mxGeometry x="-840" y="120" width="90" height="30" as="geometry">
            <mxRectangle x="-840" y="120" width="340" height="910" as="alternateBounds" />
          </mxGeometry>
        </mxCell>
        <mxCell id="uUPJHFzAYMxNlcOr0IJL-10" value="Muestra horarios disponibles" style="rounded=1;whiteSpace=wrap;html=1;" vertex="1" parent="uUPJHFzAYMxNlcOr0IJL-4">
          <mxGeometry x="140" y="250" width="120" height="60" as="geometry" />
        </mxCell>
        <mxCell id="uUPJHFzAYMxNlcOr0IJL-33" style="edgeStyle=orthogonalEdgeStyle;rounded=0;orthogonalLoop=1;jettySize=auto;html=1;entryX=0.5;entryY=0;entryDx=0;entryDy=0;" edge="1" parent="uUPJHFzAYMxNlcOr0IJL-4" source="uUPJHFzAYMxNlcOr0IJL-13" target="uUPJHFzAYMxNlcOr0IJL-14">
          <mxGeometry relative="1" as="geometry" />
        </mxCell>
        <mxCell id="uUPJHFzAYMxNlcOr0IJL-13" value="Valida si la fecha y hora SIGUEN disponibles" style="rounded=1;whiteSpace=wrap;html=1;" vertex="1" parent="uUPJHFzAYMxNlcOr0IJL-4">
          <mxGeometry x="110" y="470" width="120" height="60" as="geometry" />
        </mxCell>
        <mxCell id="uUPJHFzAYMxNlcOr0IJL-34" style="edgeStyle=orthogonalEdgeStyle;rounded=0;orthogonalLoop=1;jettySize=auto;html=1;" edge="1" parent="uUPJHFzAYMxNlcOr0IJL-4" source="uUPJHFzAYMxNlcOr0IJL-14" target="uUPJHFzAYMxNlcOr0IJL-15">
          <mxGeometry relative="1" as="geometry" />
        </mxCell>
        <mxCell id="uUPJHFzAYMxNlcOr0IJL-14" value="Registrar cita base de datos" style="rounded=1;whiteSpace=wrap;html=1;" vertex="1" parent="uUPJHFzAYMxNlcOr0IJL-4">
          <mxGeometry x="110" y="610" width="120" height="60" as="geometry" />
        </mxCell>
        <mxCell id="uUPJHFzAYMxNlcOr0IJL-15" value="Envía notificación" style="rounded=1;whiteSpace=wrap;html=1;" vertex="1" parent="uUPJHFzAYMxNlcOr0IJL-4">
          <mxGeometry x="110" y="740" width="120" height="60" as="geometry" />
        </mxCell>
        <mxCell id="uUPJHFzAYMxNlcOr0IJL-31" style="edgeStyle=orthogonalEdgeStyle;rounded=0;orthogonalLoop=1;jettySize=auto;html=1;entryX=0.5;entryY=0;entryDx=0;entryDy=0;" edge="1" parent="uUPJHFzAYMxNlcOr0IJL-4" source="uUPJHFzAYMxNlcOr0IJL-30" target="uUPJHFzAYMxNlcOr0IJL-10">
          <mxGeometry relative="1" as="geometry" />
        </mxCell>
        <mxCell id="uUPJHFzAYMxNlcOr0IJL-30" value="Valida disponibilidad de citas" style="rounded=1;whiteSpace=wrap;html=1;" vertex="1" parent="uUPJHFzAYMxNlcOr0IJL-4">
          <mxGeometry x="140" y="130" width="120" height="60" as="geometry" />
        </mxCell>
        <mxCell id="uUPJHFzAYMxNlcOr0IJL-5" value="Personal Administrativo" style="swimlane;whiteSpace=wrap;html=1;" vertex="1" collapsed="1" parent="1">
          <mxGeometry x="-500" y="120" width="170" height="30" as="geometry">
            <mxRectangle x="-500" y="120" width="320" height="910" as="alternateBounds" />
          </mxGeometry>
        </mxCell>
        <mxCell id="uUPJHFzAYMxNlcOr0IJL-11" value="Configura disponibilidad de citas (fecha y horas)" style="rounded=1;whiteSpace=wrap;html=1;" vertex="1" parent="uUPJHFzAYMxNlcOr0IJL-5">
          <mxGeometry x="120" y="130" width="120" height="60" as="geometry" />
        </mxCell>
        <mxCell id="uUPJHFzAYMxNlcOr0IJL-17" value="Recibe notificación de cita" style="rounded=1;whiteSpace=wrap;html=1;" vertex="1" parent="uUPJHFzAYMxNlcOr0IJL-5">
          <mxGeometry x="100" y="740" width="120" height="60" as="geometry" />
        </mxCell>
        <mxCell id="uUPJHFzAYMxNlcOr0IJL-19" style="edgeStyle=entityRelationEdgeStyle;rounded=0;orthogonalLoop=1;jettySize=auto;html=1;entryX=1;entryY=0.5;entryDx=0;entryDy=0;" edge="1" parent="1" source="uUPJHFzAYMxNlcOr0IJL-18" target="uUPJHFzAYMxNlcOr0IJL-10">
          <mxGeometry relative="1" as="geometry" />
        </mxCell>
        <mxCell id="uUPJHFzAYMxNlcOr0IJL-18" value="Aquí se deben de manejar threads para atender solicitudes simultáneas" style="shape=note;whiteSpace=wrap;html=1;backgroundOutline=1;darkOpacity=0.05;size=15;" vertex="1" parent="1">
          <mxGeometry x="-140" y="250" width="120" height="100" as="geometry" />
        </mxCell>
        <mxCell id="uUPJHFzAYMxNlcOr0IJL-24" style="edgeStyle=orthogonalEdgeStyle;rounded=0;orthogonalLoop=1;jettySize=auto;html=1;entryX=0.792;entryY=0.167;entryDx=0;entryDy=0;entryPerimeter=0;" edge="1" parent="1" source="uUPJHFzAYMxNlcOr0IJL-10" target="uUPJHFzAYMxNlcOr0IJL-22">
          <mxGeometry relative="1" as="geometry" />
        </mxCell>
        <mxCell id="uUPJHFzAYMxNlcOr0IJL-25" style="edgeStyle=orthogonalEdgeStyle;rounded=0;orthogonalLoop=1;jettySize=auto;html=1;entryX=0;entryY=0.5;entryDx=0;entryDy=0;" edge="1" parent="1" source="uUPJHFzAYMxNlcOr0IJL-12" target="uUPJHFzAYMxNlcOr0IJL-13">
          <mxGeometry relative="1" as="geometry" />
        </mxCell>
        <mxCell id="uUPJHFzAYMxNlcOr0IJL-32" style="edgeStyle=orthogonalEdgeStyle;rounded=0;orthogonalLoop=1;jettySize=auto;html=1;entryX=1;entryY=0.5;entryDx=0;entryDy=0;" edge="1" parent="1" source="uUPJHFzAYMxNlcOr0IJL-11" target="uUPJHFzAYMxNlcOr0IJL-30">
          <mxGeometry relative="1" as="geometry" />
        </mxCell>
        <mxCell id="uUPJHFzAYMxNlcOr0IJL-35" style="edgeStyle=orthogonalEdgeStyle;rounded=0;orthogonalLoop=1;jettySize=auto;html=1;entryX=1;entryY=0.5;entryDx=0;entryDy=0;" edge="1" parent="1" source="uUPJHFzAYMxNlcOr0IJL-15" target="uUPJHFzAYMxNlcOr0IJL-16">
          <mxGeometry relative="1" as="geometry" />
        </mxCell>
        <mxCell id="uUPJHFzAYMxNlcOr0IJL-36" style="edgeStyle=orthogonalEdgeStyle;rounded=0;orthogonalLoop=1;jettySize=auto;html=1;entryX=0;entryY=0.5;entryDx=0;entryDy=0;" edge="1" parent="1" source="uUPJHFzAYMxNlcOr0IJL-15" target="uUPJHFzAYMxNlcOr0IJL-17">
          <mxGeometry relative="1" as="geometry" />
        </mxCell>
        <mxCell id="uUPJHFzAYMxNlcOr0IJL-96" value="Potro Citas" style="swimlane;whiteSpace=wrap;html=1;" vertex="1" parent="1">
          <mxGeometry x="-3490" y="250" width="1360" height="1630" as="geometry">
            <mxRectangle x="-3470" y="250" width="140" height="30" as="alternateBounds" />
          </mxGeometry>
        </mxCell>
        <mxCell id="uUPJHFzAYMxNlcOr0IJL-48" value="Sistema" style="swimlane;whiteSpace=wrap;html=1;startSize=23;" vertex="1" parent="uUPJHFzAYMxNlcOr0IJL-96">
          <mxGeometry x="440" y="20" width="370" height="1610" as="geometry" />
        </mxCell>
        <mxCell id="uUPJHFzAYMxNlcOr0IJL-49" value="Muestra horarios disponibles" style="rounded=1;whiteSpace=wrap;html=1;" vertex="1" parent="uUPJHFzAYMxNlcOr0IJL-48">
          <mxGeometry x="90" y="680" width="120" height="60" as="geometry" />
        </mxCell>
        <mxCell id="uUPJHFzAYMxNlcOr0IJL-51" value="Valida si la fecha y hora SIGUEN disponibles" style="rounded=1;whiteSpace=wrap;html=1;" vertex="1" parent="uUPJHFzAYMxNlcOr0IJL-48">
          <mxGeometry x="100" y="950" width="120" height="60" as="geometry" />
        </mxCell>
        <mxCell id="uUPJHFzAYMxNlcOr0IJL-55" style="edgeStyle=orthogonalEdgeStyle;rounded=0;orthogonalLoop=1;jettySize=auto;html=1;entryX=0.5;entryY=0;entryDx=0;entryDy=0;" edge="1" parent="uUPJHFzAYMxNlcOr0IJL-48" source="uUPJHFzAYMxNlcOr0IJL-56" target="uUPJHFzAYMxNlcOr0IJL-49">
          <mxGeometry relative="1" as="geometry" />
        </mxCell>
        <mxCell id="uUPJHFzAYMxNlcOr0IJL-56" value="Valida disponibilidad de citas" style="rounded=1;whiteSpace=wrap;html=1;" vertex="1" parent="uUPJHFzAYMxNlcOr0IJL-48">
          <mxGeometry x="90" y="540" width="120" height="60" as="geometry" />
        </mxCell>
        <mxCell id="uUPJHFzAYMxNlcOr0IJL-53" value="Registrar cita base de datos" style="rounded=1;whiteSpace=wrap;html=1;" vertex="1" parent="uUPJHFzAYMxNlcOr0IJL-48">
          <mxGeometry x="100" y="1070" width="120" height="60" as="geometry" />
        </mxCell>
        <mxCell id="uUPJHFzAYMxNlcOr0IJL-50" style="edgeStyle=orthogonalEdgeStyle;rounded=0;orthogonalLoop=1;jettySize=auto;html=1;entryX=0.5;entryY=0;entryDx=0;entryDy=0;" edge="1" parent="uUPJHFzAYMxNlcOr0IJL-48" source="uUPJHFzAYMxNlcOr0IJL-51" target="uUPJHFzAYMxNlcOr0IJL-53">
          <mxGeometry relative="1" as="geometry" />
        </mxCell>
        <mxCell id="uUPJHFzAYMxNlcOr0IJL-54" value="Envía notificación" style="rounded=1;whiteSpace=wrap;html=1;" vertex="1" parent="uUPJHFzAYMxNlcOr0IJL-48">
          <mxGeometry x="100" y="1200" width="120" height="60" as="geometry" />
        </mxCell>
        <mxCell id="uUPJHFzAYMxNlcOr0IJL-52" style="edgeStyle=orthogonalEdgeStyle;rounded=0;orthogonalLoop=1;jettySize=auto;html=1;" edge="1" parent="uUPJHFzAYMxNlcOr0IJL-48" source="uUPJHFzAYMxNlcOr0IJL-53" target="uUPJHFzAYMxNlcOr0IJL-54">
          <mxGeometry relative="1" as="geometry" />
        </mxCell>
        <mxCell id="uUPJHFzAYMxNlcOr0IJL-82" value="" style="shape=line;html=1;strokeWidth=6;strokeColor=#ff0000;" vertex="1" parent="uUPJHFzAYMxNlcOr0IJL-48">
          <mxGeometry x="70" y="1510" width="200" height="10" as="geometry" />
        </mxCell>
        <mxCell id="uUPJHFzAYMxNlcOr0IJL-83" value="" style="edgeStyle=orthogonalEdgeStyle;html=1;verticalAlign=bottom;endArrow=open;endSize=8;strokeColor=#ff0000;rounded=0;entryX=0.5;entryY=0;entryDx=0;entryDy=0;" edge="1" source="uUPJHFzAYMxNlcOr0IJL-82" parent="uUPJHFzAYMxNlcOr0IJL-48" target="uUPJHFzAYMxNlcOr0IJL-95">
          <mxGeometry relative="1" as="geometry">
            <mxPoint x="170" y="1570" as="targetPoint" />
          </mxGeometry>
        </mxCell>
        <mxCell id="uUPJHFzAYMxNlcOr0IJL-84" value="" style="shape=line;html=1;strokeWidth=6;strokeColor=#ff0000;" vertex="1" parent="uUPJHFzAYMxNlcOr0IJL-48">
          <mxGeometry x="70" y="1290" width="200" height="10" as="geometry" />
        </mxCell>
        <mxCell id="uUPJHFzAYMxNlcOr0IJL-95" value="" style="ellipse;html=1;shape=endState;fillColor=#000000;strokeColor=#ff0000;" vertex="1" parent="uUPJHFzAYMxNlcOr0IJL-48">
          <mxGeometry x="155" y="1580" width="30" height="30" as="geometry" />
        </mxCell>
        <mxCell id="uUPJHFzAYMxNlcOr0IJL-57" value="Personal Administrativo" style="swimlane;whiteSpace=wrap;html=1;" vertex="1" parent="uUPJHFzAYMxNlcOr0IJL-96">
          <mxGeometry x="810" y="20" width="340" height="1610" as="geometry" />
        </mxCell>
        <mxCell id="uUPJHFzAYMxNlcOr0IJL-58" value="Configura disponibilidad de citas (fecha y horas)" style="rounded=1;whiteSpace=wrap;html=1;" vertex="1" parent="uUPJHFzAYMxNlcOr0IJL-57">
          <mxGeometry x="120" y="130" width="120" height="60" as="geometry" />
        </mxCell>
        <mxCell id="uUPJHFzAYMxNlcOr0IJL-59" value="Recibe notificación de cita" style="rounded=1;whiteSpace=wrap;html=1;" vertex="1" parent="uUPJHFzAYMxNlcOr0IJL-57">
          <mxGeometry x="90" y="1350" width="120" height="60" as="geometry" />
        </mxCell>
        <mxCell id="uUPJHFzAYMxNlcOr0IJL-60" style="edgeStyle=entityRelationEdgeStyle;rounded=0;orthogonalLoop=1;jettySize=auto;html=1;entryX=1;entryY=0.75;entryDx=0;entryDy=0;dashed=1;" edge="1" parent="uUPJHFzAYMxNlcOr0IJL-96" source="uUPJHFzAYMxNlcOr0IJL-61" target="uUPJHFzAYMxNlcOr0IJL-56">
          <mxGeometry relative="1" as="geometry" />
        </mxCell>
        <mxCell id="uUPJHFzAYMxNlcOr0IJL-61" value="Aquí se deben de manejar threads para atender solicitudes simultáneas" style="shape=note;whiteSpace=wrap;html=1;backgroundOutline=1;darkOpacity=0.05;size=15;" vertex="1" parent="uUPJHFzAYMxNlcOr0IJL-96">
          <mxGeometry x="1225" y="650" width="120" height="100" as="geometry" />
        </mxCell>
        <mxCell id="uUPJHFzAYMxNlcOr0IJL-64" style="edgeStyle=orthogonalEdgeStyle;rounded=0;orthogonalLoop=1;jettySize=auto;html=1;entryX=1;entryY=0.5;entryDx=0;entryDy=0;" edge="1" parent="uUPJHFzAYMxNlcOr0IJL-96" source="uUPJHFzAYMxNlcOr0IJL-58" target="uUPJHFzAYMxNlcOr0IJL-56">
          <mxGeometry relative="1" as="geometry" />
        </mxCell>
        <mxCell id="uUPJHFzAYMxNlcOr0IJL-92" style="edgeStyle=orthogonalEdgeStyle;rounded=0;orthogonalLoop=1;jettySize=auto;html=1;entryX=0;entryY=0.75;entryDx=0;entryDy=0;exitX=0.75;exitY=0.5;exitDx=0;exitDy=0;exitPerimeter=0;" edge="1" parent="uUPJHFzAYMxNlcOr0IJL-96" source="uUPJHFzAYMxNlcOr0IJL-84" target="uUPJHFzAYMxNlcOr0IJL-59">
          <mxGeometry relative="1" as="geometry">
            <Array as="points">
              <mxPoint x="660" y="1415" />
            </Array>
          </mxGeometry>
        </mxCell>
        <mxCell id="uUPJHFzAYMxNlcOr0IJL-94" style="edgeStyle=orthogonalEdgeStyle;rounded=0;orthogonalLoop=1;jettySize=auto;html=1;entryX=0.75;entryY=0.5;entryDx=0;entryDy=0;entryPerimeter=0;exitX=0.5;exitY=1;exitDx=0;exitDy=0;" edge="1" parent="uUPJHFzAYMxNlcOr0IJL-96" source="uUPJHFzAYMxNlcOr0IJL-59" target="uUPJHFzAYMxNlcOr0IJL-82">
          <mxGeometry relative="1" as="geometry" />
        </mxCell>
        <mxCell id="uUPJHFzAYMxNlcOr0IJL-37" value="Usuario" style="swimlane;whiteSpace=wrap;html=1;" vertex="1" parent="uUPJHFzAYMxNlcOr0IJL-96">
          <mxGeometry y="20" width="440" height="1610" as="geometry" />
        </mxCell>
        <mxCell id="uUPJHFzAYMxNlcOr0IJL-38" value="" style="ellipse;html=1;shape=startState;fillColor=#000000;strokeColor=#ff0000;" vertex="1" parent="uUPJHFzAYMxNlcOr0IJL-37">
          <mxGeometry x="145" y="38" width="30" height="30" as="geometry" />
        </mxCell>
        <mxCell id="uUPJHFzAYMxNlcOr0IJL-39" value="" style="edgeStyle=orthogonalEdgeStyle;html=1;verticalAlign=bottom;endArrow=open;endSize=8;strokeColor=#ff0000;rounded=0;" edge="1" parent="uUPJHFzAYMxNlcOr0IJL-37" source="uUPJHFzAYMxNlcOr0IJL-38">
          <mxGeometry relative="1" as="geometry">
            <mxPoint x="160" y="128" as="targetPoint" />
          </mxGeometry>
        </mxCell>
        <mxCell id="uUPJHFzAYMxNlcOr0IJL-40" style="edgeStyle=orthogonalEdgeStyle;rounded=0;orthogonalLoop=1;jettySize=auto;html=1;" edge="1" parent="uUPJHFzAYMxNlcOr0IJL-37" source="uUPJHFzAYMxNlcOr0IJL-41" target="uUPJHFzAYMxNlcOr0IJL-42">
          <mxGeometry relative="1" as="geometry" />
        </mxCell>
        <mxCell id="uUPJHFzAYMxNlcOr0IJL-41" value="Inicia sesión en el sistema" style="rounded=1;whiteSpace=wrap;html=1;" vertex="1" parent="uUPJHFzAYMxNlcOr0IJL-37">
          <mxGeometry x="110" y="130" width="120" height="60" as="geometry" />
        </mxCell>
        <mxCell id="uUPJHFzAYMxNlcOr0IJL-42" value="Selecciona dependencia de interés" style="rounded=1;whiteSpace=wrap;html=1;" vertex="1" parent="uUPJHFzAYMxNlcOr0IJL-37">
          <mxGeometry x="110" y="230" width="120" height="60" as="geometry" />
        </mxCell>
        <mxCell id="uUPJHFzAYMxNlcOr0IJL-43" value="Selecciona fecha y hora disponible" style="rounded=1;whiteSpace=wrap;html=1;" vertex="1" parent="uUPJHFzAYMxNlcOr0IJL-37">
          <mxGeometry x="145" y="950" width="120" height="60" as="geometry" />
        </mxCell>
        <mxCell id="uUPJHFzAYMxNlcOr0IJL-67" value="consultar horarios disponibles" style="rounded=1;whiteSpace=wrap;html=1;" vertex="1" parent="uUPJHFzAYMxNlcOr0IJL-37">
          <mxGeometry x="110" y="330" width="120" height="60" as="geometry" />
        </mxCell>
        <mxCell id="uUPJHFzAYMxNlcOr0IJL-47" style="edgeStyle=orthogonalEdgeStyle;rounded=0;orthogonalLoop=1;jettySize=auto;html=1;" edge="1" parent="uUPJHFzAYMxNlcOr0IJL-37" source="uUPJHFzAYMxNlcOr0IJL-42" target="uUPJHFzAYMxNlcOr0IJL-67">
          <mxGeometry relative="1" as="geometry" />
        </mxCell>
        <mxCell id="uUPJHFzAYMxNlcOr0IJL-74" value="Visualizar horarios disponibles" style="rounded=1;whiteSpace=wrap;html=1;" vertex="1" parent="uUPJHFzAYMxNlcOr0IJL-37">
          <mxGeometry x="90" y="580" width="120" height="60" as="geometry" />
        </mxCell>
        <mxCell id="uUPJHFzAYMxNlcOr0IJL-78" value="" style="shape=line;html=1;strokeWidth=6;strokeColor=#ff0000;" vertex="1" parent="uUPJHFzAYMxNlcOr0IJL-37">
          <mxGeometry x="105" y="840" width="200" height="10" as="geometry" />
        </mxCell>
        <mxCell id="uUPJHFzAYMxNlcOr0IJL-79" value="" style="edgeStyle=orthogonalEdgeStyle;html=1;verticalAlign=bottom;endArrow=open;endSize=8;strokeColor=#ff0000;rounded=0;entryX=0.5;entryY=0;entryDx=0;entryDy=0;" edge="1" source="uUPJHFzAYMxNlcOr0IJL-78" parent="uUPJHFzAYMxNlcOr0IJL-37" target="uUPJHFzAYMxNlcOr0IJL-43">
          <mxGeometry relative="1" as="geometry">
            <mxPoint x="205" y="920" as="targetPoint" />
          </mxGeometry>
        </mxCell>
        <mxCell id="uUPJHFzAYMxNlcOr0IJL-81" style="edgeStyle=orthogonalEdgeStyle;rounded=0;orthogonalLoop=1;jettySize=auto;html=1;entryX=0.25;entryY=0.5;entryDx=0;entryDy=0;entryPerimeter=0;" edge="1" parent="uUPJHFzAYMxNlcOr0IJL-37" source="uUPJHFzAYMxNlcOr0IJL-74" target="uUPJHFzAYMxNlcOr0IJL-78">
          <mxGeometry relative="1" as="geometry" />
        </mxCell>
        <mxCell id="uUPJHFzAYMxNlcOr0IJL-44" value="Recibe confirmación de cita" style="rounded=1;whiteSpace=wrap;html=1;" vertex="1" parent="uUPJHFzAYMxNlcOr0IJL-37">
          <mxGeometry x="200" y="1350" width="120" height="60" as="geometry" />
        </mxCell>
        <mxCell id="uUPJHFzAYMxNlcOr0IJL-45" value="" style="shape=line;html=1;strokeWidth=6;strokeColor=#ff0000;" vertex="1" parent="uUPJHFzAYMxNlcOr0IJL-37">
          <mxGeometry x="210" y="480" width="230" height="10" as="geometry" />
        </mxCell>
        <mxCell id="uUPJHFzAYMxNlcOr0IJL-68" style="edgeStyle=orthogonalEdgeStyle;rounded=0;orthogonalLoop=1;jettySize=auto;html=1;entryX=0.407;entryY=0.867;entryDx=0;entryDy=0;entryPerimeter=0;" edge="1" parent="uUPJHFzAYMxNlcOr0IJL-37" source="uUPJHFzAYMxNlcOr0IJL-67" target="uUPJHFzAYMxNlcOr0IJL-45">
          <mxGeometry relative="1" as="geometry" />
        </mxCell>
        <mxCell id="uUPJHFzAYMxNlcOr0IJL-75" value="" style="endArrow=classic;html=1;rounded=0;exitX=0.21;exitY=0.467;exitDx=0;exitDy=0;exitPerimeter=0;entryX=1;entryY=0.5;entryDx=0;entryDy=0;" edge="1" parent="uUPJHFzAYMxNlcOr0IJL-37" source="uUPJHFzAYMxNlcOr0IJL-45" target="uUPJHFzAYMxNlcOr0IJL-74">
          <mxGeometry width="50" height="50" relative="1" as="geometry">
            <mxPoint x="650" y="570" as="sourcePoint" />
            <mxPoint x="170" y="610" as="targetPoint" />
            <Array as="points">
              <mxPoint x="260" y="610" />
            </Array>
          </mxGeometry>
        </mxCell>
        <mxCell id="uUPJHFzAYMxNlcOr0IJL-63" style="edgeStyle=orthogonalEdgeStyle;rounded=0;orthogonalLoop=1;jettySize=auto;html=1;entryX=0;entryY=0.5;entryDx=0;entryDy=0;" edge="1" parent="uUPJHFzAYMxNlcOr0IJL-96" source="uUPJHFzAYMxNlcOr0IJL-43" target="uUPJHFzAYMxNlcOr0IJL-51">
          <mxGeometry relative="1" as="geometry" />
        </mxCell>
        <mxCell id="uUPJHFzAYMxNlcOr0IJL-80" style="edgeStyle=orthogonalEdgeStyle;rounded=0;orthogonalLoop=1;jettySize=auto;html=1;entryX=0.75;entryY=0.5;entryDx=0;entryDy=0;entryPerimeter=0;" edge="1" parent="uUPJHFzAYMxNlcOr0IJL-96" source="uUPJHFzAYMxNlcOr0IJL-49" target="uUPJHFzAYMxNlcOr0IJL-78">
          <mxGeometry relative="1" as="geometry" />
        </mxCell>
        <mxCell id="uUPJHFzAYMxNlcOr0IJL-93" style="edgeStyle=orthogonalEdgeStyle;rounded=0;orthogonalLoop=1;jettySize=auto;html=1;entryX=0.25;entryY=0.5;entryDx=0;entryDy=0;entryPerimeter=0;exitX=0.5;exitY=1;exitDx=0;exitDy=0;" edge="1" parent="uUPJHFzAYMxNlcOr0IJL-96" source="uUPJHFzAYMxNlcOr0IJL-44" target="uUPJHFzAYMxNlcOr0IJL-82">
          <mxGeometry relative="1" as="geometry" />
        </mxCell>
        <mxCell id="uUPJHFzAYMxNlcOr0IJL-91" style="edgeStyle=orthogonalEdgeStyle;rounded=0;orthogonalLoop=1;jettySize=auto;html=1;entryX=1;entryY=0.75;entryDx=0;entryDy=0;" edge="1" parent="uUPJHFzAYMxNlcOr0IJL-96" source="uUPJHFzAYMxNlcOr0IJL-84" target="uUPJHFzAYMxNlcOr0IJL-44">
          <mxGeometry relative="1" as="geometry">
            <Array as="points">
              <mxPoint x="570" y="1415" />
            </Array>
          </mxGeometry>
        </mxCell>
        <mxCell id="uUPJHFzAYMxNlcOr0IJL-71" value="" style="endArrow=classic;html=1;rounded=0;exitX=0.75;exitY=0.5;exitDx=0;exitDy=0;exitPerimeter=0;entryX=0;entryY=0.5;entryDx=0;entryDy=0;" edge="1" parent="uUPJHFzAYMxNlcOr0IJL-96" source="uUPJHFzAYMxNlcOr0IJL-45" target="uUPJHFzAYMxNlcOr0IJL-56">
          <mxGeometry width="50" height="50" relative="1" as="geometry">
            <mxPoint x="640" y="590" as="sourcePoint" />
            <mxPoint x="690" y="540" as="targetPoint" />
            <Array as="points">
              <mxPoint x="383" y="590" />
            </Array>
          </mxGeometry>
        </mxCell>
        <mxCell id="uUPJHFzAYMxNlcOr0IJL-97" value="Prueba---&amp;gt; IGNORAR" style="text;html=1;align=center;verticalAlign=middle;whiteSpace=wrap;rounded=0;" vertex="1" parent="1">
          <mxGeometry x="-920" y="80" width="150" height="30" as="geometry" />
        </mxCell>
      </root>
    </mxGraphModel>
  </diagram>
</mxfile>
